PathFileType	4	(X/Y/Z)	C:/Users/opensim2020/Desktop/walking_exp_matlab/subject06_walking12_straigt_04.trc	
DataRate	CameraRate	NumFrames	NumMarkers	Units	OrigDataRate	OrigDataStartFrame	OrigNumFrames	
100.00	100.00	6	48	mm	100.00	2924	181	
Frame#	Time	LFHD			RFHD			LBHD			RBHD			C7			T10			CLAV			STRN			RBAK			LSHO			LUPA			LELB			LFRM			LWRA			LWRB			LFIN			RSHO			RUPA			RELB			RFRM			RWRA			RWRB			RFIN			LASI			RASI			LPSI			RPSI			LTHI			LKNE			LTIB			LANK			LHEE			LTOE			RTHI			RKNE			RTIB			RANK			RHEE			RTOE			*39			*40			*41			*42			*43			*44			*45			*46			*47			
		X1	Y1	Z1	X2	Y2	Z2	X3	Y3	Z3	X4	Y4	Z4	X5	Y5	Z5	X6	Y6	Z6	X7	Y7	Z7	X8	Y8	Z8	X9	Y9	Z9	X10	Y10	Z10	X11	Y11	Z11	X12	Y12	Z12	X13	Y13	Z13	X14	Y14	Z14	X15	Y15	Z15	X16	Y16	Z16	X17	Y17	Z17	X18	Y18	Z18	X19	Y19	Z19	X20	Y20	Z20	X21	Y21	Z21	X22	Y22	Z22	X23	Y23	Z23	X24	Y24	Z24	X25	Y25	Z25	X26	Y26	Z26	X27	Y27	Z27	X28	Y28	Z28	X29	Y29	Z29	X30	Y30	Z30	X31	Y31	Z31	X32	Y32	Z32	X33	Y33	Z33	X34	Y34	Z34	X35	Y35	Z35	X36	Y36	Z36	X37	Y37	Z37	X38	Y38	Z38	X39	Y39	Z39	X40	Y40	Z40	X41	Y41	Z41	X42	Y42	Z42	X43	Y43	Z43	X44	Y44	Z44	X45	Y45	Z45	X46	Y46	Z46	X47	Y47	Z47	X48	Y48	Z48	

159	1.580	1485.84192	-503.15771	1680.29651	1354.58728	-498.42041	1661.82361	1495.05554	-373.70782	1616.68420	1366.49329	-370.01685	1604.40002	1439.91919	-380.45139	1458.04480	1433.14514	-362.44247	1128.50574	1441.28088	-493.47034	1385.51697	1453.46106	-540.67737	1211.05371	1361.33691	-317.62524	1284.52454	1601.84912	-433.91660	1417.22546	1673.88123	-449.13235	1215.83716	1686.68188	-460.63406	1103.79822	1709.55249	-536.99402	975.06555	1669.81775	-644.09369	902.57520	1701.82898	-590.46417	868.34918	1705.56445	-664.43365	817.08295	1278.42847	-453.35129	1415.14465	1196.94604	-402.14227	1216.50305	1193.57397	-398.87613	1093.67432	1180.54871	-398.71838	972.72388	1213.38330	-442.34930	827.84711	1177.29736	-385.31052	834.89069	1178.57568	-409.26849	753.08026	1556.32446	-529.46606	967.35925	1336.62048	-551.60712	978.45728	1513.92102	-375.35544	995.47607	1347.16345	-398.35593	1004.41254	1603.45935	-467.42926	647.19629	1585.38440	-479.01184	484.55237	1568.35522	-285.10684	331.42618	1526.79651	-155.95955	220.01439	1476.70532	-124.77533	239.37410	1532.22705	-212.35065	84.94125	1277.15283	-523.12225	646.10345	1306.89685	-540.05457	523.10657	1311.86450	-504.11984	256.69116	1364.12708	-495.64771	72.43294	1410.75977	-457.76257	49.01520	1366.41589	-650.77710	37.93454	1429.01880	-397.92435	1708.37805																								 
160	1.590	1485.47852	-512.99677	1680.66052	1354.19531	-508.35452	1662.26978	1494.54236	-383.43936	1617.20935	1365.99524	-379.84308	1604.88953	1439.31799	-390.03787	1458.66113	1432.19214	-371.37469	1129.21606	1440.91016	-503.01144	1385.89014	1452.83130	-549.73285	1211.41626	1359.90796	-327.11951	1285.37915	1601.45679	-443.04733	1417.19006	1673.04419	-456.72461	1215.31824	1685.63196	-466.77292	1103.01160	1708.57678	-539.31531	971.85376	1669.50757	-643.94659	895.54437	1701.04980	-588.86346	863.15607	1705.54175	-660.91711	809.45233	1277.88025	-463.44757	1415.74658	1195.78101	-414.27588	1216.68518	1192.10254	-412.55627	1093.80798	1179.30042	-415.18674	972.85773	1212.92188	-461.66785	829.19531	1176.32190	-405.54926	834.83942	1177.59509	-431.84982	753.93646	1555.48535	-538.75623	968.18134	1335.75769	-560.09320	978.87152	1513.30920	-384.47855	996.08588	1346.50793	-406.87646	1005.04242	1603.26636	-481.82181	648.10889	1585.19946	-496.71072	485.87036	1568.56812	-304.44797	331.67328	1527.39368	-175.82510	219.46533	1477.08240	-144.17328	237.97267	1534.09338	-235.11887	86.07842	1276.83044	-529.35980	645.97253	1306.51306	-544.67810	522.58362	1312.07593	-504.95776	256.70682	1364.46936	-495.82730	72.50126	1410.87292	-457.91281	49.24450	1366.37805	-651.01343	37.83848	1428.52673	-407.67892	1708.86218																								 
161	1.600	1485.17151	-522.69550	1681.02930	1353.91956	-518.21106	1662.60535	1494.13586	-393.16025	1617.68054	1365.55591	-389.67905	1605.36084	1438.69983	-399.65952	1459.10352	1431.18225	-380.30008	1129.80774	1440.53430	-512.45111	1386.12915	1452.25903	-558.75018	1211.60974	1358.39905	-336.45990	1286.14270	1600.99890	-452.15491	1417.12158	1672.16919	-464.11826	1214.89905	1684.49915	-472.78406	1102.42480	1707.53113	-541.27844	968.73932	1669.15503	-643.31488	888.71912	1700.24524	-586.73218	858.32520	1705.53784	-656.78320	802.19415	1277.46265	-473.34299	1416.29297	1194.58386	-426.28323	1216.87219	1190.61389	-426.13657	1094.03430	1177.98999	-431.65878	973.20129	1212.02319	-482.25565	831.20032	1175.27075	-425.90305	834.99951	1176.50439	-454.68707	755.06622	1554.50940	-548.05188	968.95270	1334.87720	-568.73193	979.16742	1512.79346	-393.48505	996.67090	1345.81458	-415.39291	1005.43384	1603.12866	-495.98407	649.00067	1584.93579	-514.26428	487.19400	1568.88599	-324.10028	331.28876	1528.11548	-196.46207	217.80769	1477.70679	-164.17424	235.32001	1536.01318	-259.19907	86.66953	1276.66443	-535.37964	645.68884	1306.19873	-549.19952	522.10522	1312.49316	-506.07321	256.70880	1364.85474	-496.18698	72.67516	1411.28430	-458.05371	49.46009	1366.39282	-651.07642	37.66405	1428.15076	-417.59131	1709.30347																								 
162	1.610	1485.02771	-532.51385	1681.26428	1353.72888	-528.13080	1662.91553	1493.84607	-402.86331	1618.10046	1365.20471	-399.48648	1605.83044	1438.41162	-409.01218	1459.54065	1430.24500	-389.17828	1130.29663	1440.16370	-521.73407	1386.43323	1451.64954	-567.72876	1211.80444	1357.30237	-345.70944	1286.84399	1600.56665	-461.16504	1417.10791	1671.31970	-471.35385	1214.53430	1683.41223	-478.74417	1101.95459	1706.55127	-542.92731	965.97778	1668.70313	-642.03674	882.11316	1699.56543	-584.12634	853.90552	1705.39343	-651.98962	795.33551	1277.04053	-483.06635	1416.86926	1193.80078	-438.56415	1217.42847	1189.08936	-439.46649	1094.28015	1176.55994	-448.15912	973.66638	1210.93030	-503.03708	833.43848	1174.11328	-446.45557	835.48926	1175.38477	-477.76987	756.74780	1553.45154	-557.41516	969.69525	1333.80615	-577.07867	979.28223	1512.32617	-402.48087	997.11682	1345.14490	-423.84244	1005.66095	1603.30896	-509.94067	649.70618	1584.65344	-531.60455	488.58307	1569.26697	-343.97339	330.35904	1528.94470	-217.80798	215.10486	1478.66003	-184.83969	231.50452	1537.81702	-284.37766	86.38638	1276.70923	-540.88440	645.18256	1305.87805	-553.51147	521.62402	1312.78601	-507.57666	256.70599	1365.18091	-496.42371	72.76499	1411.58350	-458.16028	49.70357	1366.44788	-651.20703	37.54248	1427.88000	-427.47540	1709.69690																								 
163	1.620	1484.99280	-542.30597	1681.47058	1353.66919	-538.05505	1663.21399	1493.53149	-412.51053	1618.45154	1364.98828	-409.21652	1606.28821	1437.79468	-418.45547	1459.89661	1429.43481	-397.88934	1130.70996	1439.85156	-531.07300	1386.60828	1451.04041	-576.63159	1211.99255	1356.29883	-354.88812	1287.43274	1600.11230	-470.31403	1417.09680	1670.47937	-478.47137	1214.23474	1682.31604	-484.52191	1101.60962	1705.58765	-544.24591	963.47742	1668.21826	-640.51501	875.90344	1698.58154	-581.18622	849.87744	1705.18848	-646.72516	788.84955	1276.72144	-492.54333	1417.37854	1192.85242	-450.16098	1217.74426	1187.63940	-452.81546	1094.62036	1175.14197	-464.72617	974.35638	1210.16187	-523.48450	835.96100	1173.04260	-467.09192	836.24884	1174.16370	-500.95108	758.81769	1552.30103	-566.68756	970.44427	1332.64355	-585.41925	979.41174	1511.96558	-411.44308	997.49335	1344.75256	-432.51434	1005.65051	1603.24487	-523.82904	650.91614	1584.32166	-548.74634	490.13113	1569.65881	-364.18234	328.84616	1529.90808	-239.90102	211.36615	1479.23877	-205.93240	226.64183	1539.62036	-310.57050	85.37373	1276.49426	-546.67291	645.04181	1305.55762	-557.98114	521.19446	1312.90601	-509.49261	256.68762	1365.51782	-496.59882	72.76141	1411.68542	-458.19418	49.80758	1366.41528	-651.31653	37.52103	1427.72815	-437.36282	1710.05310																								 
164	1.630	1485.02832	-552.11548	1681.59900	1353.65161	-547.81775	1663.42725	1493.49353	-422.21536	1618.79565	1364.85852	-419.07697	1606.73450	1437.52148	-427.86935	1460.30127	1428.70276	-406.73727	1131.00366	1439.58325	-540.37384	1386.82690	1450.43469	-585.45074	1212.06104	1355.38867	-364.08798	1287.85156	1599.84546	-479.16406	1417.17615	1669.77661	-485.43555	1213.98743	1681.27905	-490.16953	1101.33276	1704.64160	-545.45465	961.27753	1667.65015	-638.28955	869.97522	1697.83704	-577.94147	846.27649	1704.82776	-641.06018	782.82855	1276.48328	-501.90134	1417.87317	1191.97534	-461.49628	1218.07385	1186.11572	-465.98410	1095.08057	1173.86475	-480.93488	975.14331	1209.63782	-543.36511	838.66290	1171.91846	-487.79349	837.36621	1172.93750	-524.32941	761.20490	1551.15186	-575.97711	971.18347	1331.35962	-593.53790	979.36908	1511.71436	-420.42114	997.75134	1344.17322	-440.30072	1005.57715	1603.51270	-537.27521	651.79663	1583.97375	-565.53754	491.82288	1570.20740	-384.59558	326.89749	1530.88281	-262.83167	206.66687	1480.53076	-228.15642	220.62105	1541.35327	-337.65204	83.59472	1276.38647	-552.44183	644.92236	1305.11389	-562.57428	520.80377	1312.80481	-511.67990	256.61005	1365.21191	-496.99329	73.20954	1411.71204	-458.23566	49.87686	1366.33081	-651.31403	37.47764	1427.70752	-447.26599	1710.40784																								 
